<svg xmlns="http://www.w3.org/2000/svg" xmlns:xlink="http://www.w3.org/1999/xlink" width="500" zoomAndPan="magnify" viewBox="0 0 375 374.999991" height="500" preserveAspectRatio="xMidYMid meet" version="1.0"><defs><g/><clipPath id="id1"><path d="M 59 2.25 L 290 2.25 L 290 287 L 59 287 Z M 59 2.25 " clip-rule="nonzero"/></clipPath></defs><path fill="#d2dae2" d="M 208.175781 161.96875 C 235.214844 199.289062 241.058594 226.570312 250.214844 223.957031 C 257.375 221.917969 253.933594 215.785156 272.851562 211.457031 C 291.015625 207.300781 309.574219 222.230469 313.429688 240.246094 C 318.566406 257.902344 310.242188 280.09375 291.621094 285.570312 C 273.191406 292.25 251.222656 281.394531 244.667969 263.019531 C 235.164062 242.011719 230.292969 214.265625 199.585938 190.453125 L 176.015625 172.171875 L 94.449219 56.882812 C 85.328125 41.976562 79.851562 22.148438 91.675781 3.269531 L 208.175781 161.972656 Z M 295.683594 231.558594 C 279.972656 215.867188 252.183594 225.4375 252.230469 246.382812 C 251.117188 265.652344 274.511719 283.199219 291.898438 272.199219 C 306.542969 264.488281 306.4375 242.300781 295.683594 231.558594 Z M 295.683594 231.558594 " fill-opacity="1" fill-rule="nonzero"/><g clip-path="url(#id1)"><path fill="#d2dae2" d="M 166.511719 160.949219 C 139.554688 198.332031 133.773438 225.621094 124.609375 223.03125 C 117.445312 221.007812 120.875 214.867188 101.945312 210.582031 C 83.769531 206.464844 65.246094 221.4375 61.429688 239.460938 C 56.335938 257.128906 64.707031 279.300781 83.34375 284.738281 C 101.785156 291.375 123.730469 280.46875 130.246094 262.078125 C 139.699219 241.050781 144.511719 213.292969 175.164062 189.414062 L 198.695312 171.082031 L 280.007812 55.609375 C 289.09375 40.683594 294.527344 20.839844 282.660156 1.988281 Z M 79.160156 230.726562 C 94.835938 215.003906 122.644531 224.511719 122.644531 245.453125 C 123.800781 264.722656 100.445312 282.320312 83.035156 271.363281 C 68.375 263.683594 68.429688 241.492188 79.160156 230.726562 Z M 79.160156 230.726562 " fill-opacity="1" fill-rule="nonzero"/></g><g fill="#d2dae2" fill-opacity="1"><g transform="translate(22.563366, 336.962908)"><g><path d="M 2.109375 0 L 6.90625 0 C 14.625 0 18.222656 -4.410156 18.222656 -11.078125 L 18.222656 -33.570312 L 14.003906 -33.570312 L 14.003906 -11.316406 C 14.003906 -6.859375 12.277344 -4.027344 6.90625 -4.027344 L 2.109375 -4.027344 Z M 2.109375 0 "/></g></g></g><g fill="#d2dae2" fill-opacity="1"><g transform="translate(54.309131, 336.962908)"><g><path d="M 20.140625 0.625 C 30.355469 0.625 37.546875 -6.570312 37.546875 -16.785156 C 37.546875 -27 30.355469 -34.191406 20.140625 -34.191406 C 9.925781 -34.191406 2.78125 -27 2.78125 -16.785156 C 2.78125 -6.570312 9.925781 0.625 20.140625 0.625 Z M 7.097656 -16.785156 C 7.097656 -24.601562 12.421875 -29.972656 20.140625 -29.972656 C 27.863281 -29.972656 33.183594 -24.601562 33.183594 -16.785156 C 33.183594 -8.96875 27.863281 -3.597656 20.140625 -3.597656 C 12.421875 -3.597656 7.097656 -8.96875 7.097656 -16.785156 Z M 7.097656 -16.785156 "/></g></g></g><g fill="#d2dae2" fill-opacity="1"><g transform="translate(103.317999, 336.962908)"><g><path d="M 4.890625 0 L 9.0625 0 L 9.0625 -26.28125 L 27.621094 0 L 31.554688 0 L 31.554688 -33.570312 L 27.429688 -33.570312 L 27.429688 -7.289062 L 8.871094 -33.570312 L 4.890625 -33.570312 Z M 4.890625 0 "/></g></g></g><g fill="#d2dae2" fill-opacity="1"><g transform="translate(148.490619, 336.962908)"><g><path d="M 0.816406 0 L 5.324219 0 L 8.390625 -7.625 L 24.746094 -7.625 L 27.910156 0 L 32.371094 0 L 18.558594 -33.570312 L 14.625 -33.570312 Z M 10.023438 -11.558594 L 16.59375 -27.671875 L 23.164062 -11.558594 Z M 10.023438 -11.558594 "/></g></g></g><g fill="#d2dae2" fill-opacity="1"><g transform="translate(190.402428, 336.962908)"><g><path d="M 12.996094 0 L 17.214844 0 L 17.214844 -29.539062 L 28.535156 -29.539062 L 28.535156 -33.570312 L 1.628906 -33.570312 L 1.628906 -29.539062 L 12.996094 -29.539062 Z M 12.996094 0 "/></g></g></g><g fill="#d2dae2" fill-opacity="1"><g transform="translate(229.341153, 336.962908)"><g><path d="M 26.902344 0 L 31.121094 0 L 31.121094 -33.570312 L 26.902344 -33.570312 L 26.902344 -19.132812 L 9.113281 -19.132812 L 9.113281 -33.570312 L 4.890625 -33.570312 L 4.890625 0 L 9.113281 0 L 9.113281 -15.105469 L 26.902344 -15.105469 Z M 26.902344 0 "/></g></g></g><g fill="#d2dae2" fill-opacity="1"><g transform="translate(274.082193, 336.962908)"><g><path d="M 0.816406 0 L 5.324219 0 L 8.390625 -7.625 L 24.746094 -7.625 L 27.910156 0 L 32.371094 0 L 18.558594 -33.570312 L 14.625 -33.570312 Z M 10.023438 -11.558594 L 16.59375 -27.671875 L 23.164062 -11.558594 Z M 10.023438 -11.558594 "/></g></g></g><g fill="#d2dae2" fill-opacity="1"><g transform="translate(315.994003, 336.962908)"><g><path d="M 4.890625 0 L 9.0625 0 L 9.0625 -26.28125 L 27.621094 0 L 31.554688 0 L 31.554688 -33.570312 L 27.429688 -33.570312 L 27.429688 -7.289062 L 8.871094 -33.570312 L 4.890625 -33.570312 Z M 4.890625 0 "/></g></g></g><g fill="#d2dae2" fill-opacity="1"><g transform="translate(58.392353, 174.554535)"><g><path d="M 3.824219 0 L 29.679688 0 L 29.679688 -4.355469 L 11.46875 -4.355469 L 22.191406 -14.121094 C 26.8125 -18.371094 28.933594 -22.511719 28.933594 -26.707031 C 28.933594 -33.234375 23.730469 -37.855469 16.617188 -37.855469 C 9.34375 -37.855469 4.460938 -33.023438 4.246094 -25.589844 L 8.601562 -25.589844 C 8.761719 -30.742188 11.945312 -33.765625 16.671875 -33.765625 C 21.238281 -33.765625 24.421875 -30.953125 24.421875 -26.707031 C 24.421875 -23.625 22.777344 -20.917969 19.21875 -17.625 L 3.824219 -3.503906 Z M 3.824219 0 "/></g></g></g><g fill="#d2dae2" fill-opacity="1"><g transform="translate(92.420431, 174.554535)"><g><path d="M 18.582031 0.691406 C 27.875 0.691406 33.554688 -6.691406 33.554688 -18.582031 C 33.554688 -30.476562 27.875 -37.855469 18.582031 -37.855469 C 9.34375 -37.855469 3.558594 -30.476562 3.558594 -18.582031 C 3.558594 -6.691406 9.34375 0.691406 18.582031 0.691406 Z M 8.175781 -18.582031 C 8.175781 -27.714844 12.15625 -33.34375 18.582031 -33.34375 C 25.007812 -33.34375 28.933594 -27.714844 28.933594 -18.582031 C 28.933594 -9.449219 25.007812 -3.824219 18.582031 -3.824219 C 12.15625 -3.824219 8.175781 -9.449219 8.175781 -18.582031 Z M 8.175781 -18.582031 "/></g></g></g><g fill="#d2dae2" fill-opacity="1"><g transform="translate(245.467224, 174.554535)"><g><path d="M 3.824219 0 L 29.679688 0 L 29.679688 -4.355469 L 11.46875 -4.355469 L 22.191406 -14.121094 C 26.8125 -18.371094 28.933594 -22.511719 28.933594 -26.707031 C 28.933594 -33.234375 23.730469 -37.855469 16.617188 -37.855469 C 9.34375 -37.855469 4.460938 -33.023438 4.246094 -25.589844 L 8.601562 -25.589844 C 8.761719 -30.742188 11.945312 -33.765625 16.671875 -33.765625 C 21.238281 -33.765625 24.421875 -30.953125 24.421875 -26.707031 C 24.421875 -23.625 22.777344 -20.917969 19.21875 -17.625 L 3.824219 -3.503906 Z M 3.824219 0 "/></g></g></g><g fill="#d2dae2" fill-opacity="1"><g transform="translate(279.495302, 174.554535)"><g><path d="M 3.824219 0 L 29.679688 0 L 29.679688 -4.355469 L 11.46875 -4.355469 L 22.191406 -14.121094 C 26.8125 -18.371094 28.933594 -22.511719 28.933594 -26.707031 C 28.933594 -33.234375 23.730469 -37.855469 16.617188 -37.855469 C 9.34375 -37.855469 4.460938 -33.023438 4.246094 -25.589844 L 8.601562 -25.589844 C 8.761719 -30.742188 11.945312 -33.765625 16.671875 -33.765625 C 21.238281 -33.765625 24.421875 -30.953125 24.421875 -26.707031 C 24.421875 -23.625 22.777344 -20.917969 19.21875 -17.625 L 3.824219 -3.503906 Z M 3.824219 0 "/></g></g></g><g fill="#d2dae2" fill-opacity="1"><g transform="translate(104.428408, 370.202203)"><g><path d="M 1.992188 0 L 7.53125 0 C 10.285156 0 12 -1.464844 12 -3.824219 C 12 -5.367188 11.242188 -6.519531 9.835938 -7.082031 C 10.949219 -7.648438 11.613281 -8.703125 11.613281 -10.03125 C 11.613281 -12.234375 9.894531 -13.660156 7.277344 -13.660156 L 1.992188 -13.660156 Z M 3.707031 -1.601562 L 3.707031 -6.1875 L 7.472656 -6.1875 C 9.25 -6.1875 10.246094 -5.347656 10.246094 -3.902344 C 10.246094 -2.4375 9.25 -1.601562 7.492188 -1.601562 Z M 3.707031 -7.746094 L 3.707031 -12.058594 L 7.238281 -12.058594 C 8.898438 -12.058594 9.855469 -11.28125 9.855469 -9.894531 C 9.855469 -8.527344 8.917969 -7.746094 7.238281 -7.746094 Z M 3.707031 -7.746094 "/></g></g></g><g fill="#d2dae2" fill-opacity="1"><g transform="translate(121.073749, 370.202203)"><g><path d="M 0.332031 0 L 2.167969 0 L 3.414062 -3.101562 L 10.070312 -3.101562 L 11.359375 0 L 13.171875 0 L 7.550781 -13.660156 L 5.953125 -13.660156 Z M 4.078125 -4.703125 L 6.753906 -11.261719 L 9.425781 -4.703125 Z M 4.078125 -4.703125 "/></g></g></g><g fill="#d2dae2" fill-opacity="1"><g transform="translate(138.128835, 370.202203)"><g><path d="M 1.992188 0 L 3.707031 0 L 3.707031 -4.898438 L 6.714844 -4.898438 L 10.050781 0 L 12.117188 0 L 8.683594 -5.074219 C 10.675781 -5.5625 11.902344 -7.0625 11.902344 -9.269531 C 11.902344 -11.980469 10.03125 -13.660156 7.199219 -13.660156 L 1.992188 -13.660156 Z M 3.707031 -6.539062 L 3.707031 -12.019531 L 7.007812 -12.019531 C 8.996094 -12.019531 10.148438 -11.007812 10.148438 -9.269531 C 10.148438 -7.53125 8.996094 -6.539062 7.007812 -6.539062 Z M 3.707031 -6.539062 "/></g></g></g><g fill="#d2dae2" fill-opacity="1"><g transform="translate(154.96929, 370.202203)"><g><path d="M 1.992188 0 L 7.53125 0 C 10.285156 0 12 -1.464844 12 -3.824219 C 12 -5.367188 11.242188 -6.519531 9.835938 -7.082031 C 10.949219 -7.648438 11.613281 -8.703125 11.613281 -10.03125 C 11.613281 -12.234375 9.894531 -13.660156 7.277344 -13.660156 L 1.992188 -13.660156 Z M 3.707031 -1.601562 L 3.707031 -6.1875 L 7.472656 -6.1875 C 9.25 -6.1875 10.246094 -5.347656 10.246094 -3.902344 C 10.246094 -2.4375 9.25 -1.601562 7.492188 -1.601562 Z M 3.707031 -7.746094 L 3.707031 -12.058594 L 7.238281 -12.058594 C 8.898438 -12.058594 9.855469 -11.28125 9.855469 -9.894531 C 9.855469 -8.527344 8.917969 -7.746094 7.238281 -7.746094 Z M 3.707031 -7.746094 "/></g></g></g><g fill="#d2dae2" fill-opacity="1"><g transform="translate(171.614629, 370.202203)"><g><path d="M 1.992188 0 L 10.5 0 L 10.5 -1.601562 L 3.707031 -1.601562 L 3.707031 -6.167969 L 9.796875 -6.167969 L 9.796875 -7.746094 L 3.707031 -7.746094 L 3.707031 -12.058594 L 10.285156 -12.058594 L 10.285156 -13.660156 L 1.992188 -13.660156 Z M 1.992188 0 "/></g></g></g><g fill="#d2dae2" fill-opacity="1"><g transform="translate(186.933174, 370.202203)"><g><path d="M 1.992188 0 L 3.707031 0 L 3.707031 -4.898438 L 6.714844 -4.898438 L 10.050781 0 L 12.117188 0 L 8.683594 -5.074219 C 10.675781 -5.5625 11.902344 -7.0625 11.902344 -9.269531 C 11.902344 -11.980469 10.03125 -13.660156 7.199219 -13.660156 L 1.992188 -13.660156 Z M 3.707031 -6.539062 L 3.707031 -12.019531 L 7.007812 -12.019531 C 8.996094 -12.019531 10.148438 -11.007812 10.148438 -9.269531 C 10.148438 -7.53125 8.996094 -6.539062 7.007812 -6.539062 Z M 3.707031 -6.539062 "/></g></g></g><g fill="#d2dae2" fill-opacity="1"><g transform="translate(203.773624, 370.202203)"><g><path d="M 6.539062 0.253906 C 9.523438 0.253906 11.457031 -1.210938 11.457031 -3.589844 C 11.457031 -5.601562 10.109375 -6.8125 6.617188 -7.667969 C 3.960938 -8.3125 3.082031 -9.015625 3.082031 -10.148438 C 3.082031 -11.457031 4.253906 -12.273438 6.207031 -12.273438 C 8.214844 -12.273438 9.464844 -11.261719 9.503906 -9.621094 L 11.203125 -9.621094 C 11.183594 -12.273438 9.269531 -13.914062 6.207031 -13.914062 C 3.21875 -13.914062 1.328125 -12.449219 1.328125 -10.148438 C 1.328125 -8.039062 2.828125 -6.871094 6.1875 -6.070312 C 8.644531 -5.484375 9.679688 -4.800781 9.679688 -3.53125 C 9.679688 -2.1875 8.46875 -1.386719 6.539062 -1.386719 C 4.410156 -1.386719 2.925781 -2.4375 2.886719 -4.195312 L 1.171875 -4.195312 C 1.191406 -1.523438 3.277344 0.253906 6.539062 0.253906 Z M 6.539062 0.253906 "/></g></g></g><g fill="#d2dae2" fill-opacity="1"><g transform="translate(219.950682, 370.202203)"><g><path d="M 10.949219 0 L 12.664062 0 L 12.664062 -13.660156 L 10.949219 -13.660156 L 10.949219 -7.785156 L 3.707031 -7.785156 L 3.707031 -13.660156 L 1.992188 -13.660156 L 1.992188 0 L 3.707031 0 L 3.707031 -6.148438 L 10.949219 -6.148438 Z M 10.949219 0 "/></g></g></g><g fill="#d2dae2" fill-opacity="1"><g transform="translate(238.156948, 370.202203)"><g><path d="M 8.195312 0.253906 C 12.351562 0.253906 15.28125 -2.671875 15.28125 -6.832031 C 15.28125 -10.988281 12.351562 -13.914062 8.195312 -13.914062 C 4.039062 -13.914062 1.132812 -10.988281 1.132812 -6.832031 C 1.132812 -2.671875 4.039062 0.253906 8.195312 0.253906 Z M 2.886719 -6.832031 C 2.886719 -10.011719 5.054688 -12.195312 8.195312 -12.195312 C 11.339844 -12.195312 13.503906 -10.011719 13.503906 -6.832031 C 13.503906 -3.648438 11.339844 -1.464844 8.195312 -1.464844 C 5.054688 -1.464844 2.886719 -3.648438 2.886719 -6.832031 Z M 2.886719 -6.832031 "/></g></g></g><g fill="#d2dae2" fill-opacity="1"><g transform="translate(258.099753, 370.202203)"><g><path d="M 1.992188 0 L 3.707031 0 L 3.707031 -4.488281 L 6.617188 -4.488281 C 9.699219 -4.488281 11.691406 -6.265625 11.691406 -9.074219 C 11.691406 -11.863281 9.699219 -13.660156 6.617188 -13.660156 L 1.992188 -13.660156 Z M 3.707031 -6.089844 L 3.707031 -12.019531 L 6.578125 -12.019531 C 8.78125 -12.019531 9.933594 -11.007812 9.933594 -9.054688 C 9.933594 -7.101562 8.78125 -6.089844 6.578125 -6.089844 Z M 3.707031 -6.089844 "/></g></g></g></svg>